HIERARCHY
ROOT Hips
{
    OFFSET 0.000000 0.000000 0.000000
    CHANNELS 6 Xposition Yposition Zposition Zrotation Xrotation Yrotation
    JOINT Spine
    {
        OFFSET -0.000000 7.236184 0.000000
        CHANNELS 3 Zrotation Xrotation Yrotation
        JOINT Spine1
        {
            OFFSET -0.000000 20.420147 0.000000
            CHANNELS 3 Zrotation Xrotation Yrotation
            JOINT Neck
            {
                OFFSET -0.000000 20.336288 1.848754
                CHANNELS 3 Zrotation Xrotation Yrotation
                JOINT Head
                {
                    OFFSET -0.000000 12.354461 -1.764923
                    CHANNELS 3 Zrotation Xrotation Yrotation
                    End Site
                    {
                        OFFSET -0.000000 22.061537 0.000000
                    }
                }
            }
            JOINT LeftShoulder
            {
                OFFSET 3.573296 18.396038 -0.314103
                CHANNELS 3 Zrotation Xrotation Yrotation
                JOINT LeftArm
                {
                    OFFSET 10.880760 0.000000 0.000000
                    CHANNELS 3 Zrotation Xrotation Yrotation
                    JOINT LeftForeArm
                    {
                        OFFSET 27.185530 0.000000 0.000000
                        CHANNELS 3 Zrotation Xrotation Yrotation
                        JOINT LeftHand
                        {
                            OFFSET 27.825975 0.000000 0.000000
                            CHANNELS 3 Zrotation Xrotation Yrotation
                            End Site
                            {
                                OFFSET 13.236923 0.000000 0.000000
                            }
                        }
                    }
                }
            }
            JOINT RightShoulder
            {
                OFFSET -3.474926 18.396038 -0.314103
                CHANNELS 3 Zrotation Xrotation Yrotation
                JOINT RightArm
                {
                    OFFSET -10.880760 0.000000 0.000000
                    CHANNELS 3 Zrotation Xrotation Yrotation
                    JOINT RightForeArm
                    {
                        OFFSET -27.185530 0.000000 0.000000
                        CHANNELS 3 Zrotation Xrotation Yrotation
                        JOINT RightHand
                        {
                            OFFSET -27.825975 0.000000 0.000000
                            CHANNELS 3 Zrotation Xrotation Yrotation
                            End Site
                            {
                                OFFSET -13.236923 0.000000 0.000000
                            }
                        }
                    }
                }
            }
        }
    }
    JOINT LeftUpLeg
    {
        OFFSET 8.824615 0.000000 0.000000
        CHANNELS 3 Zrotation Xrotation Yrotation
        JOINT LeftLeg
        {
            OFFSET -0.000000 -35.111282 0.000000
            CHANNELS 3 Zrotation Xrotation Yrotation
            JOINT LeftFoot
            {
                OFFSET -0.000000 -42.324711 0.000000
                CHANNELS 3 Zrotation Xrotation Yrotation
                JOINT LeftToeBase
                {
                    OFFSET -0.000000 -5.735999 13.236923
                    CHANNELS 3 Zrotation Xrotation Yrotation
                    End Site
                    {
                        OFFSET -0.000000 0.000000 3.529846
                    }
                }
            }
        }
    }
    JOINT RightUpLeg
    {
        OFFSET -8.824615 0.000000 0.000000
        CHANNELS 3 Zrotation Xrotation Yrotation
        JOINT RightLeg
        {
            OFFSET -0.000000 -35.111282 0.000000
            CHANNELS 3 Zrotation Xrotation Yrotation
            JOINT RightFoot
            {
                OFFSET -0.000000 -42.324711 0.000000
                CHANNELS 3 Zrotation Xrotation Yrotation
                JOINT RightToeBase
                {
                    OFFSET -0.000000 -5.735999 13.236923
                    CHANNELS 3 Zrotation Xrotation Yrotation
                    End Site
                    {
                        OFFSET -0.000000 0.000000 3.529846
                    }
                }
            }
        }
    }
}
MOTION
Frames:    10
Frame Time:    0.008333
19.264868    79.556976    108.996368    -3.123013    -13.037100    -172.701019    -2.447223    -5.613101    0.726106    -1.542646    6.912132    0.939355    -0.764230    11.435979    -2.581273    6.204169    5.343913    -2.052371    5.517166    4.047503    -15.122632    -24.030401    13.729163    -63.566616    10.846160    -4.725090    -16.205486    22.134354    -3.809952    -3.226631    -5.364129    6.129333    12.091434    17.352211    10.922336    56.581360    -18.697107    -8.896228    29.579237    -17.796291    -4.799284    5.464170    22.673403    -31.031036    2.219394    2.072731    31.334988    1.902223    -11.210638    6.231171    -17.650959    -1.768909    -2.337271    1.969180    -22.214870    -23.403355    -11.157451    3.746264    30.389360    2.396725    10.555963    -13.090764    -13.126902    -1.166458    -0.037633    1.261673    
18.690775    79.288116    109.078743    -2.840752    -12.948719    -172.941345    -2.396221    -5.542407    0.760756    -1.323968    7.074044    0.958610    -0.753972    11.168475    -2.613362    6.291047    5.198941    -2.068002    5.806628    3.687758    -15.583735    -23.643377    12.808016    -64.787476    10.480290    -5.320623    -15.251053    21.730261    -4.427402    -2.660398    -5.796092    5.892224    12.767259    17.173683    9.918864    57.665413    -18.199980    -9.005036    28.022848    -17.075264    -5.227087    5.154317    22.724571    -31.028196    1.890754    1.949541    31.172642    2.508379    -11.422668    5.951952    -17.566143    -1.805517    -2.357840    2.010009    -22.421934    -23.763285    -11.271987    3.717651    30.961189    2.706530    10.920710    -13.165240    -13.083449    -1.173122    -0.069156    1.268936    
18.092335    79.009293    109.154037    -2.546655    -12.837921    -173.209229    -2.331638    -5.460108    0.810714    -1.102882    7.250972    0.991893    -0.735297    10.883875    -2.654831    6.393564    5.077443    -2.093348    6.086181    3.342827    -16.011608    -23.309597    11.889603    -65.982994    10.121017    -5.874613    -14.319706    21.266756    -5.000826    -2.114712    -6.215394    5.687788    13.409894    17.053688    8.911421    58.679657    -17.747648    -9.118871    26.522982    -16.351395    -5.626902    4.844817    22.768539    -31.038054    1.645099    1.886610    31.224661    3.011125    -11.698489    5.593712    -17.475473    -1.852206    -2.479110    2.062454    -22.612259    -24.091524    -11.360352    3.675170    31.487041    3.007609    11.305424    -13.214046    -13.019129    -1.186495    -0.100324    1.283456    
17.474998    78.726288    109.221542    -2.248089    -12.710677    -173.496719    -2.255764    -5.369761    0.873552    -0.887372    7.438515    1.037019    -0.705317    10.577019    -2.706017    6.509293    4.997122    -2.130137    6.352074    3.011710    -16.396151    -23.043653    10.990993    -67.143944    9.774265    -6.347771    -13.426744    20.758495    -5.494495    -1.613681    -6.610891    5.514646    14.001092    16.992807    7.920893    59.619221    -17.352083    -9.225028    25.105417    -15.633463    -5.984360    4.548254    22.793520    -31.063520    1.501667    1.895572    31.472115    3.362350    -12.044660    5.140695    -17.366039    -1.915253    -2.747151    2.133732    -22.791317    -24.380360    -11.424029    3.623093    31.951952    3.287256    11.708804    -13.234235    -12.930040    -1.206994    -0.130038    1.305684    
16.830826    78.438850    109.282066    -1.944889    -12.571403    -173.801224    -2.170016    -5.270794    0.946548    -0.678204    7.628211    1.091751    -0.662372    10.254960    -2.768375    6.639959    4.950005    -2.179610    6.603774    2.690836    -16.737879    -22.850037    10.112359    -68.282913    9.439188    -6.716295    -12.571677    20.210222    -5.887744    -1.170459    -6.977450    5.374390    14.539058    16.987968    6.941353    60.498119    -17.009541    -9.313406    23.768536    -14.915882    -6.294314    4.270736    22.786339    -31.109566    1.471362    1.995315    31.899479    3.541701    -12.496593    4.549938    -17.222706    -1.989298    -3.182756    2.218054    -22.969301    -24.632517    -11.487908    3.551583    32.357841    3.568288    12.140553    -13.225916    -12.815057    -1.235734    -0.158983    1.336825    
16.159176    78.149139    109.336838    -1.634357    -12.430390    -174.117126    -2.075749    -5.167812    1.026909    -0.472401    7.809105    1.152873    -0.606824    9.926661    -2.842639    6.786406    4.930042    -2.242393    6.839072    2.382484    -17.034014    -22.732389    9.264071    -69.399475    9.119091    -6.959240    -11.767768    19.634779    -6.161087    -0.800036    -7.308816    5.270737    15.015730    17.040216    5.975182    61.319012    -16.716103    -9.374354    22.529137    -14.202147    -6.549457    4.022055    22.741800    -31.187975    1.574952    2.212420    32.491425    3.541968    -13.072744    3.771145    -17.043497    -2.054900    -3.730653    2.293602    -23.148188    -24.856371    -11.581231    3.444834    32.707935    3.876773    12.606102    -13.189697    -12.675285    -1.276183    -0.189192    1.380641    
15.466651    77.862640    109.388443    -1.322141    -12.307407    -174.436996    -1.979043    -5.073675    1.110926    -0.269729    7.969160    1.217445    -0.539560    9.604130    -2.928416    6.944897    4.930138    -2.318223    7.055058    2.092335    -17.280287    -22.697422    8.466495    -70.475494    8.819776    -7.062122    -11.043449    19.054659    -6.299545    -0.515982    -7.597739    5.202965    15.416539    17.149521    5.045221    62.074013    -16.473806    -9.402831    21.418192    -13.504920    -6.743700    3.812787    22.660086    -31.314747    1.819200    2.549895    33.218189    3.381514    -13.724606    2.782146    -16.840214    -2.082346    -4.235476    2.326506    -23.334677    -25.062252    -11.689077    3.320057    32.994114    4.179007    13.098444    -13.119380    -12.505735    -1.314634    -0.226377    1.422312    
14.745890    77.581017    109.438614    -1.014581    -12.210031    -174.760269    -1.886856    -4.992417    1.196695    -0.067823    8.103543    1.283803    -0.460325    9.292513    -3.026243    7.111866    4.943873    -2.407778    7.253003    1.820550    -17.482939    -22.744104    7.724625    -71.506638    8.540974    -7.028785    -10.416207    18.482857    -6.305460    -0.318173    -7.845476    5.163213    15.738279    17.317957    4.163650    62.766968    -16.281269    -9.399332    20.441854    -12.825719    -6.879176    3.645455    22.540501    -31.490004    2.179896    2.981621    34.044270    3.102256    -14.381087    1.609045    -16.643467    -2.071061    -4.596745    2.315530    -23.543259    -25.251310    -11.786729    3.199838    33.206196    4.437627    13.616366    -13.000668    -12.293401    -1.322677    -0.277335    1.431114    
14.005990    77.312347    109.484444    -0.711483    -12.130527    -175.078537    -1.802496    -4.918084    1.281748    0.140349    8.209851    1.349169    -0.370254    9.009594    -3.135629    7.281790    4.952344    -2.510116    7.431825    1.573053    -17.646868    -22.858986    7.058173    -72.469597    8.287013    -6.875081    -9.912728    17.944012    -6.192154    -0.206346    -8.048182    5.146754    15.974422    17.542814    3.356159    63.384468    -16.139448    -9.367870    19.625824    -12.181066    -6.958313    3.522590    22.398149    -31.692532    2.631938    3.476760    34.916199    2.742757    -14.987926    0.342242    -16.506702    -2.048759    -4.808156    2.291547    -23.759085    -25.403316    -11.852085    3.091175    33.324154    4.632554    14.155302    -12.822976    -12.044059    -1.294243    -0.347317    1.400484    
13.242504    77.057930    109.526375    -0.414739    -12.075809    -175.384354    -1.732601    -4.860118    1.362213    0.360837    8.290486    1.409627    -0.267577    8.773251    -3.258562    7.451285    4.926168    -2.625867    7.595774    1.350775    -17.784771    -23.012632    6.475364    -73.359993    8.059195    -6.628174    -9.535054    17.452423    -5.986443    -0.180302    -8.205822    5.151888    16.127184    17.818758    2.628916    63.920834    -16.043375    -9.316965    18.978994    -11.579787    -6.990284    3.440795    22.231220    -31.926380    3.161398    4.022824    35.803066    2.334308    -15.525454    -0.978211    -16.451427    -2.025553    -4.877874    2.265903    -23.992180    -25.516468    -11.887843    3.002080    33.339645    4.759885    14.720591    -12.580566    -11.772762    -1.242550    -0.441170    1.344723    
